PathFileType	4	(X/Y/Z)	RBDS022\RBDS022runT25.trc
DataRate	CameraRate	NumFrames	NumMarkers	Units	OrigDataRate	OrigDataStartFrame	OrigNumFrames
150.000000	150.000000	4	33	mm	150.000000	3937	4500
Frame#	Time	L.ASIS			L.Heel.Bottom			L.Heel.Lateral			L.Heel.Top			L.Iliac.Crest			L.MT1			L.MT5			L.PSIS			L.Shank.Bottom.Lateral			L.Shank.Bottom.Medial			L.Shank.Top.Lateral			L.Shank.Top.Medial			L.Thigh.Bottom.Lateral			L.Thigh.Bottom.Medial			L.Thigh.Top.Lateral			L.Thigh.Top.Medial			R.ASIS			R.ASY			R.Heel.Bottom			R.Heel.Lateral			R.Heel.Top			R.Iliac.Crest			R.MT1			R.MT5			R.PSIS			R.Shank.Bottom.Lateral			R.Shank.Bottom.Medial			R.Shank.Top.Lateral			R.Shank.Top.Medial			R.Thigh.Bottom.Lateral			R.Thigh.Bottom.Medial			R.Thigh.Top.Lateral			R.Thigh.Top.Medial			
		X1	Y1	Z1	X2	Y2	Z2	X3	Y3	Z3	X4	Y4	Z4	X5	Y5	Z5	X6	Y6	Z6	X7	Y7	Z7	X8	Y8	Z8	X9	Y9	Z9	X10	Y10	Z10	X11	Y11	Z11	X12	Y12	Z12	X13	Y13	Z13	X14	Y14	Z14	X15	Y15	Z15	X16	Y16	Z16	X17	Y17	Z17	X18	Y18	Z18	X19	Y19	Z19	X20	Y20	Z20	X21	Y21	Z21	X22	Y22	Z22	X23	Y23	Z23	X24	Y24	Z24	X25	Y25	Z25	X26	Y26	Z26	X27	Y27	Z27	X28	Y28	Z28	X29	Y29	Z29	X30	Y30	Z30	X31	Y31	Z31	X32	Y32	Z32	X33	Y33	Z33	

3938	26.24666666666667	2290.86020002045	983.9812191410863	882.1180604798255	1729.730370709462	220.6193302707594	976.8605215937199	1762.793978806626	212.0982580961635	928.7014149434991	1770.49506842897	242.0196390715377	976.0774998543177	2238.279460023879	1076.011553082284	839.6798527856627	1871.598569573714	57.61633562150347	992.2792225684515	1837.366320778638	83.69235942284507	884.1456990982613	2125.400246277771	1032.380926540669	954.4437352490698	1865.39859930604	270.3902436795378	900.9735059522814	1836.710327292452	298.2455967356486	939.734975900956	1905.056086698808	337.9882913050793	882.4797908938353	1877.120415088655	366.0393620899038	919.1381618477773	2124.491595681426	633.7500175695475	848.7830977966103	2067.908249812591	658.2346325800415	888.0097278090203	2149.827400217174	736.8949957340443	822.6405649865102	2096.664775560515	760.1252278403648	861.9104542809442	2282.572226168548	994.1197840438062	1113.689001070234	2486.868007042647	119.1417861547426	1078.288840510323	2320.453070035454	31.08805845521515	1030.073997121403	2337.936603095759	49.30011286894155	1081.842882779844	2318.286062431708	74.70012067297216	1036.773955478734	2218.235239864255	1072.813696500039	1157.105742447722	2525.995470736375	89.51288274146303	1031.492297787296	2489.893210365245	61.79186624743382	1136.3274975431	2124.322014088799	1030.489046371438	1042.462680146348	2338.180635550194	183.1432391037285	1108.685186641954	2310.594396961766	191.3083905578024	1065.914955072866	2329.093880086543	265.3774773270272	1128.596162986573	2297.24328791015	268.8392106390024	1085.873761373337	2321.274862967699	622.9284673222684	1160.112607830267	2263.5691829753	605.0528515288618	1122.522797781999	2279.36664828172	724.2105453305542	1177.280071986811	2222.491054596821	705.1130518923742	1144.849572649967	
3939	26.25333333333333	2291.919427825632	984.1020991637098	882.5956817133975	1726.384537254758	231.2776281664135	978.9528321150913	1758.474305249618	221.3326461861547	930.3979939281138	1768.17499779843	250.6558515013932	977.7261025056923	2239.765351281733	1077.218427901545	840.6949521261654	1860.502474225673	61.22977347764822	992.3488962898201	1826.311470954361	89.24814139658857	884.9682033752251	2126.647256366733	1033.080749599736	954.7035301144806	1861.851544129167	275.150454134705	901.8685879733807	1833.865741795044	303.4454715916693	940.8427300005635	1902.618535293251	342.030774007851	883.4503861716807	1875.572878024502	370.4680962368495	920.371485361531	2126.481879066619	633.160403979127	849.9025049199789	2069.802799345357	657.6342630026323	888.9435730717944	2151.762525620108	736.2859534533525	823.6248011986418	2098.466635104521	759.5159012636262	862.6615563762175	2283.107610359327	994.1447409097764	1113.923369443567	2495.999288640967	121.3977902594276	1078.751019952424	2332.599789941631	27.80302084663743	1029.344021747906	2349.382150554603	46.12485641735138	1081.340058874825	2328.903027682859	71.33907962376648	1036.428372406621	2219.041897099832	1073.195631651201	1157.543575582114	2536.305574754207	93.74985903699175	1031.617682276722	2500.895592399107	63.20106348482983	1136.028257559424	2125.301933252172	1031.109621664793	1042.805670659409	2344.50188508135	180.7220411714909	1108.372347780497	2317.228624416277	188.2415289591709	1065.255198679245	2332.769538201887	262.6934345829931	1128.25345512384	2301.396463754788	265.3183484248119	1085.157895711098	2318.253739849814	621.4742175651454	1161.236117547118	2260.812061374153	604.4082523048431	1122.798623315048	2277.380225758147	723.1304877601137	1178.192146115007	2220.540815171446	704.8518681438945	1145.021301246735	
3940	26.26	2292.871467513477	983.7540855797287	883.1138991570477	1723.558554023708	241.6445539233904	980.9801802170572	1754.617416052378	230.4389226952849	932.0203587594215	1766.22552888189	259.0755425816552	979.3202405602989	2240.776816813306	1077.902990395633	841.6909186703865	1850.098465239572	65.24023185157657	992.3642893769561	1815.998049728503	95.13742376791534	885.7433164615877	2127.731151057537	1033.193788744924	954.9338736665036	1858.860180942278	279.8316726165262	902.7775188670694	1831.654461294085	308.6293110275668	941.9361322212521	1900.969266869448	345.8285770917606	884.4538829243681	1874.867821491319	374.7082643589724	921.6152772882356	2129.4167317028	631.5996381505477	851.0662777634882	2072.433004876376	655.8477083579029	889.7442423756397	2154.312050732789	734.782401173971	824.6824223609437	2100.680750889863	757.8096938061166	863.2801761395776	2283.440570315674	993.7297883717864	1114.305652838337	2502.684089063349	122.7988844665073	1078.969737532109	2341.51709087659	25.37749758382285	1028.750392665069	2357.81940339013	43.76988236210924	1080.913648535585	2336.775419657558	68.83088391897242	1036.069263672831	2219.872254858874	1072.89480726607	1158.106785282747	2543.750541878514	96.59258854300356	1031.565301927481	2508.916047254014	63.95329026333467	1135.634298891302	2126.064391302676	1031.151879602078	1043.119156548054	2349.101349765772	178.6095373566334	1108.065960750352	2322.104419672467	185.6614982084176	1064.675386937958	2335.370980650232	260.3394398975642	1127.901682474172	2304.395065414553	262.3496085840771	1084.52501878778	2315.748956078624	619.8889916215151	1162.178988100178	2258.577854352136	603.4928665192095	1122.95618997577	2275.638117570423	721.7975427007833	1179.010220345632	2218.893291659606	704.2082003028166	1145.103689371657	
3941	26.26666666666667	2293.726261415073	982.9202192513104	883.6950149782176	1721.211931115897	251.6970553253534	982.8445795355077	1751.229463419268	239.3955525018278	933.4944216544637	1764.608673558075	267.2880626267461	980.7896282689784	2241.340724655847	1078.007822939303	842.6485265388153	1840.502089138484	69.66618662484927	992.3277310974598	1806.569255627841	101.3429678702464	886.4346065092875	2128.637845978632	1032.650859478086	955.1086146851812	1856.45015888874	284.4816201767467	903.6667423594329	1830.108365499686	313.8359793349842	942.9903809027713	1900.136686564605	349.4150721819635	885.4723738047608	1875.026392448076	378.7866401265698	922.8511130057968	2133.271287362032	629.0745262103162	852.2508423163756	2075.788987923223	652.8808504524807	890.4151708722102	2157.448486362323	732.3872234512394	825.7892893987889	2103.294408805058	755.0061798546108	863.7682883357963	2283.545409642257	992.9065475162211	1114.868842849979	2506.840151514481	123.1175831203107	1078.908440296287	2346.978407216745	23.69399189359687	1028.249500353483	2363.023497030706	42.1461753296561	1080.512327831001	2341.72118024075	67.08064837146087	1035.629009117895	2220.660514114807	1071.952936114257	1158.782315801431	2548.259064687755	97.71124247754302	1031.332291692845	2513.779978375102	63.87364646316338	1135.170218071076	2126.586016093576	1030.566728863832	1043.37478316259	2351.917906003011	176.7096236024604	1107.754541487874	2325.124865562842	183.4806428173512	1064.180617013541	2336.880598971032	258.2543965112795	1127.560518806127	2306.187589193581	259.8836658629498	1084.006609777373	2313.840831492609	618.2044572291474	1162.912995800354	2256.91632368929	602.3083920700083	1123.027053542837	2274.193355776665	720.2460917958033	1179.713217499555	2217.586847339579	703.1849515186827	1145.125490994106	
